<svg t="1711952784754" class="icon" viewBox="0 0 1024 1024" version="1.1" xmlns="http://www.w3.org/2000/svg" p-id="7170" width="200" height="200"><path d="M479.506678 22.749162a22.384715 22.384715 0 0 0-30.277868 9.216671 22.244051 22.244051 0 0 0-2.595886 11.380975c-0.009591 0.274934-0.04156 0.54667-0.041559 0.824801v164.154575H305.329812V44.168412c0-0.278131-0.031969-0.549867-0.04156-0.824801a22.244051 22.244051 0 0 0-2.595885-11.380975 22.381518 22.381518 0 0 0-30.277869-9.216671C200.38188 61.163148 155.634829 135.702139 155.634829 217.274316c0 95.798395 61.476445 177.466479 147.031963 207.744347l-12.21217 560.132572a22.36873 22.36873 0 0 0 22.371927 22.86425h126.268078a22.378321 22.378321 0 0 0 22.371927-22.86425l-12.212169-560.132572c85.555518-30.277868 147.031963-111.945952 147.031963-207.744347 0.003197-81.572177-44.747051-156.111167-116.77967-194.525154zM416.223983 963.258843h-80.523593l11.502457-527.594493c9.421273 1.234005 19.005588 1.937323 28.75934 1.937323s19.338066-0.703319 28.759339-1.937323l11.502457 527.594493z m-40.261796-570.413812c-96.808617 0-175.570716-78.762099-175.570716-175.570715a175.311767 175.311767 0 0 1 60.181699-132.348588v145.77558a22.378321 22.378321 0 0 0 22.378321 22.378321h186.021392a22.378321 22.378321 0 0 0 22.378321-22.378321V84.925728a175.302176 175.302176 0 0 1 60.181699 132.348588c0 96.808617-78.762099 175.570716-175.570716 175.570715zM819.759458 583.891955h-21.313752V217.888121a22.378321 22.378321 0 0 0 22.378321-22.378321V45.747682a22.378321 22.378321 0 0 0-22.378321-22.378321h-44.756642a22.378321 22.378321 0 0 0-22.378321 22.378321v149.762118a22.378321 22.378321 0 0 0 22.378321 22.378321v366.007031h-21.313753c-26.441585 0-47.953545 21.51196-47.953545 47.953545V960.06194c0 26.441585 21.51196 47.953545 47.953545 47.953545h87.38095c26.441585 0 47.953545-21.51196 47.953545-47.953545V631.8455c0.003197-26.441585-21.508763-47.953545-47.950348-47.953545z m3.196903 376.169985c0 1.761494-1.435409 3.196903-3.196903 3.196903h-40.49517v-249.358434a15.984515 15.984515 0 0 0-31.96903 0v249.358434h-14.919947c-1.761494 0-3.196903-1.435409-3.196903-3.196903V631.8455c0-1.761494 1.435409-3.196903 3.196903-3.196903h87.38095c1.761494 0 3.196903 1.435409 3.196903 3.196903V960.06194z" fill="#d81e06" p-id="7171"></path><path d="M375.962187 301.499922a22.378321 22.378321 0 0 0-22.378321 22.378321v12.787612a22.378321 22.378321 0 1 0 44.756642 0v-12.787612a22.378321 22.378321 0 0 0-22.378321-22.378321z" fill="#d81e06" p-id="7172"></path></svg>