<svg t="1711952868825" class="icon" viewBox="0 0 1098 1024" version="1.1" xmlns="http://www.w3.org/2000/svg" p-id="9127" width="200" height="200"><path d="M799.16421 1023.97562H299.707912c74.10414-44.250375 110.930692-89.427204 128.716173-119.536964a142.698317 142.698317 0 0 0 21.125592-55.282493h199.809338a121.536154 121.536154 0 0 0 16.859027 56.989119C682.735744 936.77922 719.220971 982.077951 799.176401 1023.97562z m199.858099-224.762649H99.959525a99.959525 99.959525 0 0 1-99.959525-99.959525V99.959525A99.959525 99.959525 0 0 1 99.959525 0h899.062784a99.959525 99.959525 0 0 1 99.898574 99.959525v599.354872a99.959525 99.959525 0 0 1-99.898574 99.898574zM274.279184 106.664127a170.845456 170.845456 0 0 0-170.662603 170.662603v239.659056a170.845456 170.845456 0 0 0 170.662603 170.662603h550.386895a170.857646 170.857646 0 0 0 170.662604-170.662603V277.31454a170.857646 170.857646 0 0 0-170.662604-170.662603z" fill="#14CB6C" p-id="9128"></path><path d="M551.752196 629.086736a236.282374 236.282374 0 1 1 167.249352-69.203686 236.489607 236.489607 0 0 1-167.249352 69.203686z m144.86817-323.259351a25.002071 25.002071 0 0 0-34.449465-3.035356L513.877289 428.777601l-70.934692-64.510465a25.709102 25.709102 0 0 0-34.790791 37.789577l83.770958 75.664484a1.584724 1.584724 0 0 0 1.35311 1.694436 25.440918 25.440918 0 0 0 34.790791 3.035356l165.518345-140.187138a25.465298 25.465298 0 0 0 3.035356-36.485227z" fill="#14CB6C" p-id="9129"></path></svg>